<svg width="104" height="16" viewBox="0 0 104 16" fill="none" xmlns="http://www.w3.org/2000/svg">
<path d="M7.01801 0.154H9.812L11.572 5.324L13.332 0.154H16.148L13.486 7.26L15.466 12.254L19.888 0.11H23.188L16.83 15.73H14.278L11.572 9.174L8.866 15.73H6.314L0 0.11H3.256L7.7 12.254L9.636 7.26L7.01801 0.154Z" fill="white"/>
<path d="M41.8741 15.84C40.7301 15.84 39.6887 15.62 38.7501 15.18C37.8261 14.7253 37.0267 14.1313 36.3521 13.398C35.6921 12.65 35.1787 11.7993 34.8121 10.846C34.4454 9.89267 34.2621 8.91733 34.2621 7.92C34.2621 6.87867 34.4527 5.88133 34.8341 4.928C35.2301 3.97467 35.7654 3.13133 36.4401 2.398C37.1294 1.66467 37.9434 1.08533 38.8821 0.659999C39.8207 0.219999 40.8401 0 41.9401 0C43.0694 0 44.0961 0.234667 45.0201 0.704C45.9587 1.15867 46.7581 1.76 47.4181 2.508C48.0781 3.256 48.5914 4.10667 48.9581 5.06C49.3247 6.01333 49.5081 6.98133 49.5081 7.964C49.5081 9.00533 49.3174 10.0027 48.9361 10.956C48.5547 11.8947 48.0267 12.7307 47.3521 13.464C46.6774 14.1827 45.8708 14.762 44.9321 15.202C43.9934 15.6273 42.9741 15.84 41.8741 15.84ZM37.3421 7.92C37.3421 8.59467 37.4448 9.24733 37.6501 9.878C37.8554 10.5087 38.1487 11.066 38.5301 11.55C38.9261 12.034 39.4027 12.4227 39.9601 12.716C40.5321 13.0093 41.1774 13.156 41.8961 13.156C42.6294 13.156 43.2747 13.0093 43.8321 12.716C44.4041 12.408 44.8808 12.0047 45.2621 11.506C45.6581 11.0073 45.9514 10.45 46.1421 9.834C46.3474 9.20333 46.4501 8.56533 46.4501 7.92C46.4501 7.24533 46.3401 6.59267 46.1201 5.962C45.9148 5.33133 45.6141 4.774 45.2181 4.29C44.8367 3.806 44.3601 3.42467 43.7881 3.146C43.2308 2.85267 42.6001 2.706 41.8961 2.706C41.1627 2.706 40.5101 2.86 39.9381 3.168C39.3661 3.46133 38.8894 3.85733 38.5081 4.356C38.1267 4.84 37.8334 5.39733 37.6281 6.028C37.4374 6.644 37.3421 7.27467 37.3421 7.92Z" fill="white"/>
<path d="M69.503 15.84C68.359 15.84 67.3176 15.62 66.379 15.18C65.455 14.7253 64.6557 14.1313 63.981 13.398C63.321 12.65 62.8076 11.7993 62.441 10.846C62.0743 9.89267 61.891 8.91733 61.891 7.92C61.891 6.87867 62.0816 5.88133 62.463 4.928C62.859 3.97467 63.3943 3.13133 64.069 2.398C64.7583 1.66467 65.5723 1.08533 66.511 0.659999C67.4497 0.219999 68.469 0 69.569 0C70.6983 0 71.725 0.234667 72.649 0.704C73.5877 1.15867 74.387 1.76 75.047 2.508C75.707 3.256 76.2203 4.10667 76.587 5.06C76.9537 6.01333 77.137 6.98133 77.137 7.964C77.137 9.00533 76.9463 10.0027 76.565 10.956C76.1837 11.8947 75.6557 12.7307 74.981 13.464C74.3063 14.1827 73.4997 14.762 72.561 15.202C71.6223 15.6273 70.603 15.84 69.503 15.84ZM64.971 7.92C64.971 8.59467 65.0737 9.24733 65.279 9.878C65.4843 10.5087 65.7776 11.066 66.159 11.55C66.555 12.034 67.0317 12.4227 67.589 12.716C68.161 13.0093 68.8063 13.156 69.525 13.156C70.2583 13.156 70.9036 13.0093 71.461 12.716C72.033 12.408 72.5097 12.0047 72.891 11.506C73.287 11.0073 73.5803 10.45 73.771 9.834C73.9763 9.20333 74.079 8.56533 74.079 7.92C74.079 7.24533 73.969 6.59267 73.749 5.962C73.5437 5.33133 73.243 4.774 72.847 4.29C72.4657 3.806 71.989 3.42467 71.417 3.146C70.8597 2.85267 70.229 2.706 69.525 2.706C68.7916 2.706 68.139 2.86 67.567 3.168C66.995 3.46133 66.5183 3.85733 66.137 4.356C65.7556 4.84 65.4623 5.39733 65.257 6.028C65.0663 6.644 64.971 7.27467 64.971 7.92Z" fill="white"/>
<path d="M90.4659 15.73V0.11H96.1419C97.4179 0.11 98.5326 0.315333 99.4859 0.726C100.454 1.13667 101.261 1.694 101.906 2.398C102.551 3.102 103.035 3.93067 103.358 4.884C103.681 5.82267 103.842 6.82733 103.842 7.898C103.842 9.086 103.659 10.164 103.292 11.132C102.94 12.0853 102.427 12.9067 101.752 13.596C101.077 14.2707 100.263 14.7987 99.3099 15.18C98.3712 15.5467 97.3152 15.73 96.1419 15.73H90.4659ZM100.784 7.898C100.784 7.15 100.681 6.46067 100.476 5.83C100.271 5.19933 99.9699 4.65667 99.5739 4.202C99.1779 3.74733 98.6866 3.39533 98.0999 3.146C97.5279 2.89667 96.8752 2.772 96.1419 2.772H93.5019V13.068H96.1419C96.8899 13.068 97.5499 12.936 98.1219 12.672C98.7086 12.408 99.1926 12.0487 99.5739 11.594C99.9699 11.1247 100.271 10.5747 100.476 9.944C100.681 9.31333 100.784 8.63133 100.784 7.898Z" fill="white"/>
<rect x="34" y="7" width="43" height="3" fill="#BC9A44"/>
</svg>
